<svg width="1920" height="1799" viewBox="0 0 1920 1799" fill="none" xmlns="http://www.w3.org/2000/svg">
<g opacity="0.25">
<path d="M1844.04 56.7773C1802.77 84.6621 1765.62 121.12 1722.56 145.201C1674.84 171.892 1623.77 189.936 1573.76 209.138C1524.91 227.896 1476.95 248.119 1430.7 275.019C1387.41 300.196 1346 329.49 1305.33 360.298C1265.04 390.817 1221.44 424.265 1194.72 473.074C1194.15 470.311 1193.58 467.548 1193.02 464.784C1209.91 478.404 1236.59 472.994 1255.47 470.496C1274.3 468.009 1293.06 463.744 1312.01 462.901C1372.26 460.218 1431.54 454.113 1489.99 435.109C1598.4 399.851 1690.89 324.099 1766.94 225.606C1808.17 172.224 1844.39 113.612 1877.52 52.6416C1880.82 46.5612 1887.79 54.8448 1884.98 60.0082C1824.8 170.784 1753.62 275.536 1662.88 351.682C1562.91 435.576 1444.32 470.742 1323.72 474.403C1299.23 475.148 1275.31 480.312 1250.96 483.081C1230.9 485.352 1206.59 488.207 1188.95 473.991C1187.07 472.477 1185.95 468.083 1187.25 465.708C1209.65 424.807 1243.38 394.872 1276.77 368.071C1316.06 336.543 1356.76 307.076 1398.6 280.773C1445.36 251.386 1493.73 227.699 1543.82 208.03C1594.83 188.004 1646.41 169.794 1696.19 145.509C1748.1 120.197 1791.17 78.5263 1839.65 45.7735C1844.29 42.6471 1848.72 53.6201 1844.04 56.7773Z" fill="#61B15A"/>
<path d="M1191.1 467.231C1290.47 416.089 1398.49 395.977 1497.97 345.273C1548.91 319.314 1596.08 283.14 1642.97 248.073C1667.61 229.647 1691.93 210.569 1715.4 190.038C1737.28 170.911 1757.7 149.611 1779.34 130.139C1824.87 89.1828 1874.96 53.3097 1912.81 1.40493C1916.5 -3.65384 1922.38 6.2237 1918.98 10.8886C1885.23 57.1623 1841.54 90.7152 1800.43 126.459C1756.84 164.344 1716.16 206.002 1670.88 241.174C1623.71 277.81 1575.25 315.56 1524.44 344.405C1476.35 371.705 1425.41 390.525 1374.43 408.138C1314.1 428.983 1253.34 448.461 1195.49 478.235C1190.57 480.764 1186.2 469.754 1191.1 467.231Z" fill="#61B15A"/>
<path d="M1712.55 874.553C1593.41 813.183 1461.24 836.021 1335.54 823.461C1272.7 817.183 1213.85 798.321 1153.99 775.605C1107.77 758.066 1059.82 742.933 1011.68 735.732C955.309 727.295 894.257 745.573 842.029 770.442C841.733 767.722 841.443 764.995 841.147 762.275C871.395 780.812 904.08 792.954 935.521 808.118C969.643 824.568 1001.26 851.389 1038.11 858.3C1064.38 863.229 1092.3 861.217 1118.75 859.814C1144.78 858.435 1168.46 853.333 1193.75 846.268C1233 835.295 1272.81 826.415 1311.41 812.34C1315.23 810.943 1318.45 819.22 1314.7 820.593C1281.2 832.809 1246.8 841.148 1212.68 850.355C1184.98 857.832 1158.7 866.017 1130.28 868.017C1103.52 869.9 1076.27 870.861 1049.49 868.522C1012.58 865.303 982.483 841.449 949.488 823.978C913.321 804.832 874.882 791.963 839.613 770.356C837.538 769.082 835.759 763.605 838.736 762.189C885.337 740.003 939.695 722.457 990.119 724.765C1038.29 726.968 1087.11 743.357 1133.2 759.37C1157.42 767.789 1181.08 778.319 1205.33 786.578C1239.04 798.062 1273.49 806.389 1308.27 811.435C1374.26 821.011 1440.85 818.642 1507.15 821.214C1577.69 823.947 1648.56 832.729 1714.08 866.472C1717.68 868.331 1716.95 876.818 1712.55 874.553Z" fill="#61B15A"/>
<path d="M841.147 762.275C868.943 776.652 904.64 772.99 934.144 772.928C948.218 772.898 962.328 772.479 976.397 773.156C997.051 774.147 1016.96 780.086 1036.92 786.123C1096.55 804.167 1159.01 807.706 1220.21 811.152C1250.71 812.875 1281.68 814.802 1312.19 812.063C1316.04 811.718 1318.12 820.488 1313.92 820.864C1255.2 826.138 1194.54 819.288 1136.05 813.115C1108.3 810.186 1080.31 807.183 1053.12 799.613C1029.36 792.991 1005.88 783.994 981.397 782.16C967.349 781.101 953.188 781.667 939.124 781.717C907.444 781.827 869.422 785.772 839.612 770.356C836.008 768.491 836.753 760.004 841.147 762.275Z" fill="#61B15A"/>
<path d="M1661.41 850.693C1626.24 878.166 1587.73 898.345 1551.83 924.273C1524.96 943.684 1499.59 966.22 1475.72 990.659C1427.48 1040.05 1373.3 1105.76 1364.41 1185.05C1363.09 1182.98 1361.77 1180.92 1360.45 1178.86C1378.04 1173.64 1391.49 1159.33 1405.28 1145.98C1418.24 1133.42 1432.26 1123.23 1446.85 1113.65C1479.68 1092.08 1510.45 1069.46 1538.01 1038.64C1563.41 1010.23 1587.22 978 1606.55 943.277C1624.52 910.992 1639.44 876.424 1656.96 843.807C1659.42 839.228 1664.65 845.444 1662.56 849.327C1644.37 883.188 1629.03 919.202 1610.08 952.472C1590.01 987.717 1565.7 1020.54 1539.48 1049.25C1511.72 1079.64 1480.85 1101.63 1448.15 1123.21C1431.2 1134.4 1416.03 1147.29 1400.98 1161.81C1389.15 1173.22 1377.07 1183.24 1362.18 1187.66C1359.44 1188.47 1357.95 1183.92 1358.22 1181.46C1367.1 1102.31 1420.33 1036.16 1468.26 986.468C1491.94 961.919 1517.16 939.277 1543.76 919.528C1580.98 891.883 1621.39 871.131 1658.12 842.44C1661.42 839.856 1664.78 848.065 1661.41 850.693Z" fill="#61B15A"/>
<path d="M1359 1179.7C1398.15 1122.72 1437.96 1062.35 1488.53 1019.64C1545.96 971.155 1593.13 908.529 1649.41 858.434C1652.82 855.4 1657.12 862.803 1654.03 865.548C1599.69 913.926 1554.52 975.321 1498.97 1021.9C1445.96 1066.36 1404.6 1127.18 1363.63 1186.81C1360.97 1190.68 1356.55 1183.28 1359 1179.7Z" fill="#61B15A"/>
<path d="M1380.98 822.727C1350.87 753.037 1314.14 691.747 1265.94 638.783C1221 589.396 1169.88 538.082 1108.99 522.327L1111.68 516.382C1123.74 551.664 1148.52 576.829 1169.48 604.277C1192.75 634.759 1212.52 667.69 1238.13 695.747C1259.44 719.102 1281.88 741.239 1305.03 761.893C1329.48 783.709 1355.49 805.126 1384.47 817.102C1388.19 818.641 1387.45 827.047 1382.94 825.183C1354.68 813.502 1329.18 792.768 1305.21 771.659C1279.71 749.209 1255 724.9 1231.81 699.046C1206.62 670.97 1186.98 637.965 1163.79 607.828C1142.66 580.38 1118.32 554.95 1106.22 519.551C1105.4 517.157 1105.94 512.831 1108.91 513.6C1170.95 529.65 1223.19 581.549 1269 631.878C1318.14 685.882 1355.74 748.507 1386.44 819.558C1388.64 824.66 1383.17 827.811 1380.98 822.727Z" fill="#61B15A"/>
<path d="M1120.28 523.071C1166.83 564.502 1206.21 615.588 1248.14 663.332C1293.6 715.096 1340.34 765.191 1385.23 817.687C1388.14 821.096 1385.73 828.74 1382.18 824.592C1337.28 772.096 1290.55 722.001 1245.09 670.237C1203.16 622.493 1163.77 571.407 1117.23 529.976C1113.89 527.004 1116.3 519.526 1120.28 523.071Z" fill="#61B15A"/>
<path d="M1592.27 830.049C1570.12 809.641 1551.85 784.458 1534.11 758.703C1516.15 732.646 1496.7 707.955 1479.48 681.203C1463.08 655.73 1449.92 628.368 1438.67 599.16C1428.01 571.466 1415.05 543.508 1415.41 512.103C1415.45 508.706 1417.97 507.598 1420.13 509.364C1430.7 518.023 1438.69 529.427 1446.88 541.126C1458.21 557.342 1470.53 568.629 1485.28 579.947C1508.43 597.72 1529.22 620.503 1546.55 646.191C1580.44 696.465 1593.98 763.669 1596.98 827.31C1597.26 833.267 1590.84 830.818 1590.61 825.882C1587.52 760.444 1572.8 693.308 1536.39 643.212C1518.17 618.152 1497.2 598.767 1474.17 580.735C1463.73 572.562 1454.63 563.361 1446.47 552.031C1437.22 539.206 1428.87 525.931 1417.08 516.269C1418.65 515.358 1420.22 514.441 1421.79 513.53C1421.41 545.465 1435.83 574.507 1446.66 602.65C1457.92 631.913 1472.32 658.961 1489.16 683.99C1505.08 707.647 1522.34 730.006 1538.5 753.447C1555.84 778.624 1573.67 803.198 1595.32 823.144C1598.62 826.178 1596.2 833.674 1592.27 830.049Z" fill="#61B15A"/>
<path d="M1422.89 515.322C1421 525.993 1430.47 541.182 1434.87 549.435C1440.71 560.346 1447.12 570.802 1453.69 581.073C1471.46 608.841 1489.4 636.56 1507.77 663.756C1541.55 713.771 1578.87 764.279 1596.87 826.166C1598.51 831.809 1592.17 831.988 1590.73 827.027C1570.08 756.032 1523.14 699.899 1485.45 641.81C1469.64 617.445 1453.09 593.554 1438.2 568.334C1429.8 554.112 1413.34 530.793 1416.7 511.728C1417.69 506.096 1423.7 510.718 1422.89 515.322Z" fill="#61B15A"/>
<path d="M1495.56 828.684C1472.1 864.034 1443.24 892.774 1413.9 920.672C1384.41 948.698 1356.38 979.18 1326.23 1006.13C1297.01 1032.24 1265.81 1053.28 1232.46 1070.64C1200.86 1087.09 1168.76 1107.96 1133.35 1105.86C1131.01 1105.72 1129.18 1101.03 1130.51 1098.74C1140.84 1081 1154.61 1068.03 1168.5 1054.6C1184.11 1039.52 1196.42 1023.11 1207.59 1003.05C1229.56 963.591 1255.2 928.235 1286.27 898.732C1343.99 843.916 1420.14 823.207 1492.39 820.727C1496.23 820.591 1498.3 829.386 1494.11 829.527C1421.28 832.026 1344.96 852.963 1287.37 909.237C1256.95 938.968 1232.78 973.992 1210.82 1012.83C1200.95 1030.28 1189.87 1045.31 1176.27 1058.67C1161.91 1072.79 1146.89 1085.75 1136.1 1104.26C1135.16 1101.89 1134.21 1099.51 1133.26 1097.14C1170.38 1099.34 1205.93 1074.8 1238.97 1057.33C1272.27 1039.72 1303.24 1016.52 1331.89 989.574C1359.24 963.843 1385.44 936.285 1412.67 910.32C1440.86 883.445 1468.39 855.547 1490.94 821.57C1493.53 817.662 1497.97 825.059 1495.56 828.684Z" fill="#61B15A"/>
<path d="M1134.1 1095.21C1145.28 1098.79 1159.57 1087.42 1168.79 1081.1C1182.41 1071.78 1195.37 1061.05 1208.06 1050C1238.82 1023.2 1269.22 995.6 1299.4 967.863C1359.18 912.943 1418.7 848.982 1491.61 820.999C1495.41 819.54 1498.65 827.811 1494.89 829.251C1416.26 859.438 1353.23 930.821 1288.37 989.2C1259.92 1014.81 1231.79 1041.21 1202.66 1065.7C1189.7 1076.6 1176.41 1087.29 1162.21 1095.71C1154.12 1100.52 1143.49 1106.91 1134.19 1103.93C1130.53 1102.76 1129.79 1093.82 1134.1 1095.21Z" fill="#61B15A"/>
<path d="M1417.05 1466.93C1415.56 1468.43 1414.12 1469.93 1412.71 1471.39C1407.72 1476.59 1403 1481.5 1396.93 1485.71C1388.55 1491.53 1378.78 1498.21 1368.84 1503.94C1351.16 1514.12 1332.3 1520.92 1316.18 1526.23C1298.95 1531.91 1280.16 1537.26 1259.66 1538.09C1250.76 1538.45 1241.74 1538.32 1233 1538.19C1221.56 1538.02 1209.72 1537.85 1198.12 1538.79C1197.92 1538.81 1197.73 1538.81 1197.54 1538.79C1183.51 1574.06 1173.9 1607.76 1168.2 1641.75C1159.5 1693.44 1158.7 1745.9 1165.73 1797.9C1162.85 1798.32 1159.97 1798.69 1157.09 1799C1154.99 1782.86 1153.61 1766.34 1152.99 1749.66C1144.32 1743.4 1136.54 1735.47 1129 1727.8C1119.06 1717.68 1108.78 1707.21 1096.63 1700.86C1091.65 1698.26 1086.67 1695.7 1081.69 1693.13C1061.12 1682.56 1039.87 1671.61 1019.75 1658.44C995.179 1642.36 974.549 1625.94 956.683 1608.27C935.33 1587.14 917.912 1561.79 903.262 1539.69C893.551 1525.04 883.249 1512.1 871.78 1500.11C861.753 1489.65 852.303 1479.02 846.905 1464.14C846.359 1462.63 846.471 1460.93 847.221 1459.47C848.021 1457.91 849.489 1456.88 850.921 1456.82C901.427 1454.01 949.73 1491.9 981.676 1520.64C1001.32 1538.31 1020.22 1558.22 1037.88 1579.81C1055.73 1601.63 1071.5 1626.08 1086.75 1649.72L1093.43 1660.07C1103.78 1676.15 1114.48 1692.77 1127.25 1706.03C1130.17 1709.07 1133.22 1712 1136.26 1714.93C1141.03 1719.52 1145.92 1724.24 1150.42 1729.45C1143.63 1656.42 1115.94 1589.53 1089.15 1524.78C1084.33 1513.14 1079.53 1501.54 1074.85 1489.92C1063.21 1461 1053.95 1435.25 1046.57 1411.23C1030.71 1391.61 1015.38 1370.81 1000.56 1350.69L998.981 1348.54C995.627 1343.99 992.171 1339.48 988.7 1334.93C976.568 1319.07 964.028 1302.66 955.041 1283.82C942.543 1257.61 941.421 1227.25 941.35 1200.86C941.289 1177.93 941.309 1154.99 941.329 1132.05L941.355 1098.73C941.36 1096.81 942.39 1095.05 944.051 1094.13C944.607 1093.83 945.173 1093.64 945.728 1093.59C946.83 1093.47 947.885 1093.84 948.68 1094.67C978.189 1125.41 1003.59 1154.23 1015.58 1195.87C1023.25 1222.46 1026.3 1250.92 1029.25 1278.44C1031.19 1296.57 1033.2 1315.31 1036.51 1333.22C1044.6 1377.07 1058 1422.47 1077.48 1472.01C1078.39 1474.33 1079.31 1476.65 1080.23 1478.96C1080.24 1461.24 1082.31 1443.78 1084.63 1427.33C1088.2 1401.97 1092.8 1377.37 1098.32 1354.23C1102.19 1337.98 1107.7 1322.47 1113.02 1307.47C1116.52 1297.6 1120.14 1287.4 1123.26 1277.11C1124.36 1273.48 1125.42 1269.81 1126.48 1266.14C1132.05 1246.9 1137.82 1227.01 1149.35 1210.98C1150.38 1209.55 1152.13 1208.9 1153.73 1209.34C1155.14 1209.73 1156.18 1210.94 1156.53 1212.57C1167.17 1262.06 1157.1 1314.19 1146.82 1359.18C1135.42 1409.12 1116.62 1455.64 1089.34 1501.42C1091.93 1507.71 1094.53 1513.99 1097.13 1520.27C1107.02 1544.13 1117.24 1568.82 1126.35 1593.67C1139.61 1629.78 1148.55 1661.36 1154.01 1691.6C1158.17 1634.55 1171.59 1577.97 1193.15 1526.93L1193.86 1525.32C1205.79 1497.28 1219.91 1469.83 1233.57 1443.3C1239.58 1431.62 1245.79 1419.57 1251.74 1407.6C1230.74 1345.75 1224.77 1288.86 1234 1238.48C1238.93 1211.59 1248.79 1186.88 1263.31 1165.03C1267.13 1159.28 1271.21 1153.61 1275.17 1148.13C1287.66 1130.8 1300.57 1112.89 1306.46 1090.38C1307.12 1087.87 1309.84 1086.31 1311.85 1086.61C1313.52 1086.86 1314.66 1088.34 1314.78 1090.67C1317.41 1142.8 1320.12 1196.72 1313.36 1249.29C1308.05 1290.62 1295.29 1333.16 1274.36 1379.34C1263.94 1402.35 1252.31 1424.97 1241.07 1446.85C1232.17 1464.17 1222.97 1482.07 1214.43 1500.03C1213.04 1502.94 1211.68 1505.87 1210.33 1508.82C1232.33 1492.25 1260.76 1485.63 1284.03 1480.22C1325.44 1470.59 1369.6 1460.99 1414.4 1458.71C1416.15 1458.62 1417.68 1459.78 1418.29 1461.66C1418.88 1463.5 1418.39 1465.58 1417.05 1466.93" fill="#61B15A"/>
<path d="M146.254 1090.62C174.733 1088.98 201.913 1081.4 229.628 1074C260.921 1065.65 295.242 1058.48 325.158 1076.56C325.617 1076.84 326.076 1076.9 326.53 1076.94C362.854 1121.24 398.837 1165.94 433.988 1211.66C419.078 1214.28 404.352 1217.44 389.84 1222.43C380.287 1200.91 358.409 1202.72 342.5 1212.72C330.001 1220.59 312.16 1237.09 313.128 1256.45C313.174 1257.29 313.322 1258.05 313.434 1258.84C313.134 1258.88 312.879 1258.83 312.537 1258.97C266.813 1276.81 218.546 1283.54 170.814 1287.96C127.501 1291.97 81.5576 1298.37 41.1707 1274.67C40.9872 1274.57 40.8037 1274.6 40.6151 1274.53C32.3165 1253 26.5819 1230.27 25.3891 1208.32C82.1132 1216.14 135.432 1246.61 192.926 1248.88C218.775 1249.89 242.014 1243.19 265.432 1230.39C281.545 1221.59 303.535 1210.24 309.948 1188.35C317.161 1163.74 298.188 1146.09 281.219 1138.92C259.473 1129.73 234.97 1128.75 212.179 1130.99C154.446 1136.67 96.0445 1163.86 40.7731 1129.38C6.50312 1107.99 -1.46414 1068.11 0.207811 1025.91C32.6121 1081.14 93.0166 1093.68 146.254 1090.62Z" fill="#61B15A"/>
<path d="M104.706 785.74C140.684 845.067 180.367 899.772 223.298 951.879C252.394 987.192 281.617 1022.35 310.698 1057.66C264.011 1043.44 212.838 1071.52 166.385 1077.55C109.182 1084.97 36.4414 1077.1 3.51203 1011.5C2.91053 1010.3 2.13062 1009.75 1.30993 1009.49C3.56299 984.805 8.32399 960.046 12.3713 938.359C30.1817 948.193 44.5769 966.791 58.4826 982.78C73.5251 1000.08 89.0519 1018.27 107.78 1029.67C135.979 1046.83 183.41 1041.78 196.862 1001.23C208.479 966.219 179.2 931.386 158.453 912.443C122.282 879.413 72.4445 877.475 43.2362 831.97C9.20074 778.939 22.4489 713.335 28.051 651.436C35.7124 672.44 47.8443 691.229 59.1861 709.304C74.8861 734.327 89.3475 760.409 104.706 785.74Z" fill="#61B15A"/>
<path d="M165.822 1299.59C215.71 1295.14 266.103 1288.21 313.886 1269.55C314.982 1269.13 315.778 1268.2 316.338 1267.1C324.081 1279.23 343.824 1279.41 354.452 1274.95C368.602 1269.02 390.603 1253.44 391.464 1232.94C406.619 1227.77 421.967 1224.76 437.56 1222.12C438.722 1221.93 439.686 1221.11 440.43 1220.02C441.908 1221.96 443.412 1223.87 444.89 1225.81C477.249 1268.33 506.085 1314.49 538.03 1357.44C545.962 1368.11 554.118 1378.4 562.452 1388.4C542.022 1387.38 523.039 1399.86 506.192 1416C495.589 1426.16 485.884 1437.56 475.592 1448.17C459.347 1464.89 441.22 1478.71 421.88 1489.6C387.549 1508.94 349.696 1520.95 312.265 1527.52C281.293 1532.96 250.194 1532.06 219.798 1522.65C202.65 1517.35 187.006 1509.55 171.678 1498.9C163.895 1493.48 156.172 1488.05 148.154 1483.38C173.203 1481.84 198.649 1485.61 223.601 1481.84C256.321 1475.62 284.989 1456.68 313.56 1437.47C332.793 1424.53 356.659 1416.29 373.593 1399.03C385.74 1386.64 390.022 1367.95 380.902 1351.12C369.611 1330.26 345.332 1329.45 326.936 1331.52C281.314 1336.65 238.531 1361.09 194.133 1373.24C171.811 1379.35 148.261 1383.38 125.511 1378.44C104.958 1373.98 89.7476 1359.81 76.3159 1341.02C66.0089 1326.62 55.9007 1309.31 47.3982 1290.63C85.063 1307.75 126.123 1303.13 165.822 1299.59Z" fill="#61B15A"/>
<path d="M179.991 692.564C177.029 715.193 175.352 737.619 180.557 759.916C191.149 805.254 213.517 860.888 202.119 908.866C166.717 863.817 134.395 815.987 104.31 765.59C91.0257 743.342 78.2618 720.719 64.565 698.841C52.0967 678.914 38.9351 658.322 32.3085 634.382C53.5647 652.537 80.5556 654.026 106.614 651.897C135.659 649.515 164.597 647.207 193.657 645.619C185.18 658.771 182.117 676.298 179.991 692.564Z" fill="#61B15A"/>
<path d="M584.571 1398.22C584.698 1397.81 584.8 1397.39 584.856 1396.93C588.042 1370.25 603.977 1357.5 621.14 1343.51C639.766 1328.33 659.335 1315.15 678.863 1301.79C714.703 1277.26 749.32 1251.4 774.098 1210.78C795.074 1176.39 810.794 1135.19 817.197 1093.07C823.854 1049.28 819.572 1004.39 825.531 960.529C851.105 1016.62 860.525 1079.98 854.566 1143.91C848.837 1205.38 832.372 1274.94 798.815 1322.82C779.241 1350.75 754.045 1372.01 726.891 1387.88C713.454 1395.73 699.564 1402.37 685.444 1408.18C678.598 1410.99 671.686 1413.59 664.743 1416.03C659.579 1417.85 652.713 1418.75 648.248 1422.43C642.528 1427.14 639.73 1436.07 641.968 1444.04C645.154 1455.4 659.095 1461.54 666.935 1467.24C693.355 1486.42 720.55 1504 748.096 1520.69C776.453 1537.88 805.197 1554.1 834.008 1570.14C857.533 1583.24 881.037 1598.97 905.861 1608.34C903.588 1611.76 901.309 1615.19 899.005 1618.6C812.553 1578.38 727.125 1531.1 651.638 1465.59C627.894 1444.98 605.638 1422.37 584.571 1398.22Z" fill="#61B15A"/>
<path d="M180.346 1518.16C195.577 1527.4 212.449 1533.16 229.118 1537.18C290.888 1552.07 360.331 1533.57 417.177 1503.49C448.909 1486.7 474.003 1462.15 499.873 1435.06C520.685 1413.27 546.336 1390.69 574.81 1402.9C665.126 1505.8 776.398 1573.9 892.502 1628.12C889.581 1632.36 886.65 1636.59 883.688 1640.78C848.073 1621.88 811.917 1602.37 777.361 1580.9C738.774 1556.93 702.322 1528.33 666.706 1498.48C646.893 1481.89 627.12 1460.33 605.063 1448.02C594.2 1441.96 575.34 1439.71 574.698 1459.15C574.372 1468.97 576.625 1478.81 576.344 1488.77C576.074 1498.43 575.213 1508.12 573.928 1517.65C571.4 1536.37 566.695 1554.78 559.247 1571.52C544.954 1603.65 521.165 1626.86 493.863 1641.64C463.375 1658.14 429.284 1667.42 395.844 1663.04C364.332 1658.89 334.691 1644.25 307.068 1626.04C248.784 1587.63 190.678 1543.94 139.877 1491.7C153.854 1499.25 166.608 1509.83 180.346 1518.16Z" fill="#61B15A"/>
<path d="M690.112 1182.83C713.667 1167.65 734.291 1145.24 751.633 1120.91C780.158 1080.92 798.147 1032.06 814.979 983.423C812.42 1020.31 814.596 1057.66 808.872 1094.19C801.287 1142.58 780.974 1190.78 752.999 1226.59C722.389 1265.78 679.882 1288.4 642.115 1315.59C616.148 1334.28 585.681 1353.37 577.806 1390.35C561.754 1371.45 546.38 1351.68 531.659 1331.1C518.543 1312.76 506.702 1291.06 493.805 1272.56C513.965 1251.25 524.935 1210.85 534.427 1188.78C534.442 1188.78 534.452 1188.78 534.467 1188.79C552.227 1196.29 568.391 1166.25 574.462 1148.88C581.099 1137.35 588.617 1115.07 583.642 1099.59C614.16 1049.71 639.872 996.747 652.259 936.066C663.504 880.986 664.548 824.551 665.685 768.105C673.393 779.724 679.688 792.888 684.291 807.35C694.69 840.029 695.454 876.013 692.197 910.434C686.289 972.837 669.09 1037.87 648.023 1095.21C640.749 1115.01 603.843 1179.24 630.697 1196.03C647.666 1206.63 675.151 1192.48 690.112 1182.83Z" fill="#61B15A"/>
<path d="M645.102 930.294C633.475 990.408 608.477 1043.72 578.397 1093.04C576.837 1091.41 575.013 1089.99 572.739 1088.95C548.506 1077.83 534.911 1110.36 527.897 1132.08C523.829 1144.66 514.731 1178.18 525.486 1190.72C514.894 1217.4 507.451 1248.36 488.051 1267.91C487.908 1268.05 487.831 1268.25 487.704 1268.41C469.909 1242.96 451.935 1217.7 432.932 1193.41C422.88 1180.56 412.813 1167.72 402.725 1154.92C402.985 1153.78 403.066 1152.61 402.715 1151.5C397.072 1133.78 403.291 1111.25 408.245 1094.24C414.072 1074.24 422.824 1055.64 430.674 1036.72C448.535 993.713 464.307 950.172 472.136 902.754C479.803 856.283 481.964 808.348 479.405 761.108C478.172 738.294 477.642 715.757 474.14 693.245C471.27 674.801 467.829 656.307 469.078 637.549C477.468 640.583 485.859 643.617 494.249 646.645C498.939 648.344 509.083 650.276 511.907 653.71C516.183 658.923 519.665 673.404 522.025 680.807C525.043 690.267 527.418 700.003 529.1 709.929C532.255 728.54 533.086 747.599 532.118 766.542C530.089 806.268 520.791 844.849 510.26 882.352C499.759 919.77 487.612 956.523 478.177 994.366C473.788 1011.95 458.088 1059.99 481.597 1068.24C500.962 1075.04 524.563 1049.59 535.018 1032.85C547.252 1013.26 556.412 989.565 566.265 968.149C599.99 894.839 624.493 815.831 631.915 731.986C641.361 739.525 650.052 748.086 657.728 757.729C657.591 758.246 657.448 758.757 657.433 759.348C656.255 816.471 655.919 874.358 645.102 930.294Z" fill="#61B15A"/>
<path d="M299.493 789.399C298.774 769.779 287.906 756.634 273.807 749.039C272.589 748.381 271.376 748.479 270.315 749.058C241.994 745.15 235.082 787.331 235.796 813.967C236.341 834.442 244.558 854.769 262.873 847.31C263.877 847.599 265.045 847.396 266.156 846.596C283.044 834.442 300.441 815.271 299.493 789.399ZM470.822 759.366C473.855 813.425 471.404 868.733 460.5 921.456C449.984 972.29 429.355 1018.11 410.24 1064.74C401.421 1086.24 390.599 1115.53 392.149 1141.54C368.018 1110.98 343.759 1080.57 319.189 1050.52C282.478 1005.62 244.568 962.142 208.31 916.705C208.438 916.416 208.611 916.188 208.708 915.856C221.028 873.847 206.679 827.334 196.994 786.605C191.112 761.865 184.184 740.774 186.07 714.539C187.543 694.088 188.43 662.819 202.198 648.11C202.968 647.291 203.422 646.208 203.723 645.082C205.359 645.002 206.985 644.897 208.621 644.824C242.458 643.304 277.518 644.971 307.684 665.693C339.803 687.756 354.958 725.764 357.996 769.09C360.84 809.579 355.376 850.135 352.588 890.402C350.865 915.277 342.316 960.61 361.824 978.648C384.747 999.843 409.755 965.878 421.648 945.156C438.902 915.087 446.35 878.555 446.722 842.288C447.145 801.196 436.97 763.711 431.746 723.678C427.143 688.396 427.112 650.215 414.114 617.69C428.555 622.908 442.991 628.121 457.426 633.34C458.65 633.783 459.878 634.226 461.102 634.669C459.042 654.24 462.167 673.613 465.195 692.839C468.682 715.019 469.558 736.885 470.822 759.366" fill="#61B15A"/>
<path d="M1809.52 1167.06C1750.36 1212.99 1712.65 1286.03 1672.56 1353.7C1652.66 1387.28 1631.72 1419.9 1607.37 1449.01C1580.84 1480.74 1550.29 1504.96 1521.26 1532.91C1504.88 1548.67 1490.43 1566.69 1480.95 1589.49C1470.93 1613.58 1466.12 1640.22 1461.34 1666.37C1459.76 1664.4 1458.18 1662.43 1456.6 1660.45C1478.91 1645.92 1501.24 1631.43 1523.53 1616.85C1543.87 1603.55 1563.93 1589.75 1576.39 1565.32C1587.95 1542.63 1593.96 1515.71 1601.45 1490.83C1608.76 1466.51 1616.06 1442.16 1622.47 1417.47C1623.9 1411.96 1629.83 1416.52 1628.66 1421.05C1621.6 1448.25 1613.48 1475.01 1605.42 1501.79C1597.99 1526.46 1591.92 1553.19 1579.69 1575.17C1568.39 1595.49 1551.51 1608.69 1534.08 1620.33C1509.5 1636.76 1484.62 1652.6 1459.9 1668.71C1457.11 1670.52 1454.64 1665.63 1455.16 1662.78C1462.84 1620.73 1471.77 1578.92 1497.13 1546.94C1523.39 1513.82 1557.88 1491.37 1586.14 1460.79C1641.31 1401.07 1677.82 1324.16 1723.04 1254.4C1746.84 1217.69 1773.61 1184.13 1806.24 1158.8C1809.55 1156.23 1812.9 1164.44 1809.52 1167.06Z" fill="#61B15A"/>
<path d="M1466.31 1646.78C1483.2 1633.34 1491.12 1610.85 1502.61 1591.7C1514.04 1572.65 1529.47 1558.5 1543.47 1542.41C1571.52 1510.17 1595.12 1470.94 1614.48 1430.58C1616.74 1425.86 1621.99 1432.1 1620.07 1436.1C1600.49 1476.95 1576.48 1516.89 1548.1 1549.52C1531.46 1568.65 1514.41 1585.06 1501.83 1608.72C1492.6 1626.09 1484.2 1643.41 1469.6 1655.03C1466.31 1657.64 1462.96 1649.44 1466.31 1646.78Z" fill="#61B15A"/>
<path d="M1740.6 1247.5C1730.42 1283.95 1715.63 1318.07 1704.31 1353.97C1695.79 1380.94 1689.44 1408.97 1684.68 1437.24C1674.87 1495.43 1667.98 1567.27 1694.27 1620.82C1692.59 1620.17 1690.92 1619.51 1689.23 1618.85C1697.87 1604.98 1700.06 1588.33 1703.22 1571.88C1706 1557.46 1710.29 1543.79 1715.03 1530.16C1726.63 1496.85 1736.4 1464.21 1740.68 1428.28C1744.46 1396.47 1745.69 1363.36 1743.32 1331.31C1741.18 1302.41 1736.7 1273.86 1734.32 1244.99C1733.83 1239.07 1740.29 1241.55 1740.69 1246.42C1743.19 1276.78 1748.06 1306.81 1750 1337.25C1752.12 1370.4 1750.48 1404.61 1746.17 1437.43C1741.62 1472.1 1731.83 1503.51 1720.62 1535.69C1714.44 1553.44 1710.47 1571 1706.8 1589.64C1704.18 1602.95 1700.7 1614.97 1693.86 1625.96C1692.3 1628.47 1689.63 1625.64 1688.82 1623.99C1663.26 1571.94 1668.01 1503.56 1676.46 1446.46C1680.89 1416.5 1687.25 1386.83 1695.73 1358.16C1707.2 1319.37 1723.5 1282.97 1734.41 1243.91C1735.94 1238.45 1741.86 1243 1740.6 1247.5Z" fill="#61B15A"/>
<path d="M1688.36 1621.7C1689.28 1565.27 1689.02 1505.93 1702.2 1451.38C1717.56 1387.77 1721.59 1321.77 1735.71 1257.9C1736.94 1252.32 1742.9 1256.92 1741.89 1261.49C1728.16 1323.63 1724.84 1388.1 1709.63 1449.88C1695.91 1505.66 1695.68 1565.3 1694.73 1623.12C1694.63 1629.09 1688.27 1626.7 1688.36 1621.7Z" fill="#61B15A"/>
<path d="M1672.91 1346.58C1630.26 1339.95 1589.39 1341.54 1547.54 1353.38C1512.17 1363.4 1474.65 1376.87 1447.34 1407.22C1446.55 1404.58 1445.77 1401.94 1444.98 1399.3C1466.12 1404.56 1486.69 1397.03 1507.66 1394.35C1528.99 1391.62 1549.8 1390.25 1570.78 1384.22C1604.36 1374.58 1642.12 1363.35 1670.55 1338.66C1673.99 1335.67 1678.28 1343.07 1675.18 1345.77C1646.91 1370.33 1610.58 1381.56 1577.2 1391.63C1554.58 1398.45 1532.4 1400.2 1509.38 1403.15C1487.86 1405.9 1466.74 1413.41 1445.07 1408.03C1442.53 1407.4 1440.54 1402.52 1442.71 1400.11C1470 1369.79 1506.88 1355.89 1542.24 1345.61C1585.82 1332.93 1628.34 1330.94 1672.82 1337.85C1676.62 1338.44 1677.39 1347.27 1672.91 1346.58Z" fill="#61B15A"/>
<path d="M1450.55 1396.53C1485.37 1382.53 1521.61 1376.21 1557.44 1367.25C1595.67 1357.69 1633.66 1346.78 1672.01 1337.81C1675.78 1336.92 1677.9 1345.63 1673.73 1346.61C1637 1355.21 1600.58 1365.49 1563.99 1374.83C1527.13 1384.23 1489.69 1390.37 1453.84 1404.78C1450.05 1406.31 1446.8 1398.03 1450.55 1396.53Z" fill="#61B15A"/>
<path d="M1743.86 1236.77C1720.51 1246.07 1696.34 1249.67 1671.94 1252.49C1645.96 1255.5 1620.03 1260.91 1593.94 1262.19C1570.6 1263.33 1548.09 1259.93 1525.08 1255.62C1505.7 1251.99 1486.08 1248.38 1469.67 1234.53C1467.93 1233.06 1467.05 1228.13 1469.56 1226.96C1479.71 1222.2 1490.09 1220.64 1500.87 1219.3C1514.62 1217.58 1526.77 1213.59 1539.46 1207C1561.88 1195.36 1585.3 1187.51 1609.65 1184.65C1656.51 1179.16 1703.26 1199.89 1742.99 1228.61C1746.28 1230.99 1745.52 1239.62 1741.45 1236.69C1701.16 1207.55 1654.41 1187.23 1606.96 1194.03C1582.98 1197.47 1560.95 1206.16 1538.79 1217.33C1517.39 1228.12 1494.14 1225.22 1472.84 1235.21C1472.8 1232.68 1472.76 1230.16 1472.73 1227.63C1490.04 1242.25 1511.98 1244.28 1532.24 1248.26C1555.37 1252.82 1578.32 1254.73 1601.72 1252.74C1623.85 1250.87 1645.81 1246.51 1667.89 1243.96C1692.5 1241.12 1716.98 1237.91 1740.58 1228.52C1744.37 1227.01 1747.61 1235.29 1743.86 1236.77Z" fill="#61B15A"/>
<path d="M1473.72 1226.95C1478.86 1233.28 1489.55 1233.06 1496.37 1233.47C1506.24 1234.07 1516.16 1233.62 1526.02 1232.96C1551.05 1231.29 1576.11 1229.17 1601.09 1226.64C1647.61 1221.94 1696.28 1213.64 1742.17 1228.29C1745.83 1229.46 1746.58 1238.39 1742.26 1237.01C1690.46 1220.48 1635.39 1232.92 1582.95 1237.22C1560.35 1239.07 1537.68 1241.73 1515.02 1242.4C1502.52 1242.77 1480.4 1245.85 1470.67 1233.86C1467.86 1230.38 1470.28 1222.7 1473.72 1226.95Z" fill="#61B15A"/>
</g>
</svg>
