<svg width="540" height="540" viewBox="0 0 540 540" fill="none" xmlns="http://www.w3.org/2000/svg">
<g filter="url(#filter0_d_208_239)">
<path d="M262.382 127.79V123.329C262.382 119.281 265.792 116 270 116C274.208 116 277.619 119.281 277.619 123.329V127.79C277.619 131.837 274.208 135.118 270 135.118C265.792 135.118 262.382 131.837 262.382 127.79ZM188.707 150.704C190.118 153.057 192.679 154.372 195.313 154.372C196.605 154.372 197.914 154.055 199.113 153.39C202.758 151.367 204.008 146.885 201.905 143.379L199.588 139.516C197.485 136.01 192.825 134.808 189.183 136.83C185.538 138.853 184.288 143.335 186.39 146.84L188.707 150.704ZM340.884 153.39C342.084 154.056 343.393 154.373 344.686 154.373C347.318 154.373 349.88 153.058 351.291 150.707L353.61 146.844C355.713 143.338 354.464 138.856 350.82 136.832C347.177 134.81 342.518 136.011 340.414 139.516L338.095 143.379C335.992 146.883 337.24 151.365 340.884 153.39ZM399.38 206.974C400.673 206.974 401.983 206.657 403.183 205.99L407.199 203.76C410.842 201.735 412.09 197.252 409.986 193.748C407.882 190.243 403.223 189.042 399.579 191.067L395.563 193.297C391.92 195.322 390.672 199.804 392.776 203.309C394.187 205.659 396.747 206.974 399.38 206.974ZM419.184 336.949C409.291 355.81 381.646 368.483 350.393 368.483C328.968 368.483 308.899 362.538 295.255 352.36C287.44 357.513 279.188 360.831 271.013 361.844C270.64 361.891 270.267 361.908 269.906 361.905C269.601 361.902 269.295 361.883 268.989 361.844C260.812 360.83 252.561 357.512 244.745 352.36C231.101 362.539 211.034 368.483 189.607 368.483C158.354 368.483 130.71 355.81 120.817 336.949C119.728 334.874 119.727 332.424 120.817 330.347C128.116 316.427 144.808 305.872 165.93 301.297C154.97 286.322 150.968 268.627 155.932 253.49C156.539 251.638 157.887 250.093 159.677 249.196C172.195 242.922 188.071 242.468 203.525 247.678C205.819 240.367 209.43 234.005 214.322 229.045C215.995 227.349 218.412 226.524 220.822 226.822C224.818 227.318 228.831 228.365 232.805 229.906C240.865 213.518 252.746 201.297 266.821 195.084C268.837 194.193 271.158 194.193 273.175 195.084C287.245 201.294 299.122 213.507 307.185 229.884C311.158 228.356 315.176 227.32 319.179 226.822C321.591 226.524 324.005 227.349 325.679 229.045C330.571 234.005 334.18 240.366 336.475 247.676C351.93 242.467 367.804 242.923 380.321 249.195C382.112 250.092 383.459 251.637 384.067 253.489C389.033 268.627 385.03 286.321 374.069 301.296C395.192 305.871 411.884 316.426 419.184 330.345C420.272 332.424 420.272 334.874 419.184 336.949ZM326.939 316.16C335.212 314.183 343.43 310.111 350.67 304.268C365.456 292.333 373.201 274.957 370.333 260.913C361.384 257.57 350.222 258.089 339.223 262.334C340.279 276.018 337.714 291.496 331.377 306.73C330.031 309.969 328.545 313.118 326.939 316.16ZM246.164 237.047C254.94 243.057 263.127 251.376 269.984 261.328C276.876 251.27 285.054 242.964 293.809 236.988C287.941 224.792 279.543 215.254 269.999 209.983C260.441 215.263 252.031 224.823 246.164 237.047ZM189.328 304.267C196.566 310.111 204.788 314.185 213.062 316.161C211.455 313.117 209.971 309.97 208.623 306.729C202.287 291.496 199.722 276.017 200.778 262.334C189.778 258.087 178.617 257.568 169.666 260.912C166.798 274.956 174.543 292.333 189.328 304.267ZM232.71 342.641C229.429 339.466 226.295 335.961 223.358 332.174C208.261 331.925 192.511 325.973 179.533 315.496C178.987 315.055 178.451 314.611 177.921 314.159C159.365 316.37 143.813 323.728 136.496 333.647C145.392 345.683 166.424 353.826 189.606 353.826C206.064 353.826 221.805 349.651 232.71 342.641ZM267.039 287.384C259.447 269.131 246.753 254.077 233.41 246.48C233.037 246.31 232.685 246.114 232.354 245.896C229.197 244.195 226.012 242.917 222.852 242.116C219.694 246.46 217.58 252.018 216.527 258.349C216.5 258.735 216.441 259.121 216.349 259.504C214.591 271.732 216.688 286.668 222.768 301.285C228.904 316.036 238.37 328.697 248.82 337.023C249.064 337.192 249.299 337.377 249.525 337.577C255.187 341.965 261.12 345.075 266.954 346.554C276.318 333.676 276.505 310.143 267.039 287.384ZM317.231 301.284C323.309 286.672 325.406 271.74 323.652 259.515C323.557 259.123 323.496 258.727 323.469 258.332C322.416 252.007 320.302 246.455 317.145 242.113C314.034 242.9 310.891 244.148 307.771 245.81C307.359 246.095 306.91 246.345 306.43 246.551C296.067 252.476 286.066 262.909 278.536 276.047C279.469 277.974 280.353 279.939 281.185 281.94C289.824 302.709 291.453 323.935 286.451 340.446C287.81 339.558 289.16 338.594 290.494 337.559C290.706 337.373 290.926 337.2 291.154 337.041C301.613 328.715 311.09 316.046 317.231 301.284ZM403.502 333.647C396.185 323.728 380.633 316.371 362.076 314.159C361.547 314.61 361.009 315.056 360.464 315.496C347.486 325.971 331.737 331.924 316.642 332.173C313.704 335.961 310.571 339.466 307.29 342.641C318.195 349.649 333.937 353.825 350.393 353.825C373.574 353.826 394.607 345.683 403.502 333.647ZM343.854 387.852C340.681 385.193 335.869 385.513 333.105 388.564C328.301 393.87 305.546 401.342 270 401.342C234.454 401.342 211.698 393.87 206.894 388.564C204.131 385.513 199.318 385.193 196.146 387.852C192.973 390.511 192.641 395.14 195.405 398.192C207.308 411.336 243.028 416 270.001 416C296.974 416 332.694 411.336 344.596 398.192C347.358 395.139 347.026 390.511 343.854 387.852ZM169.85 232.782C173.897 233.879 178.107 231.611 179.248 227.716C190.637 188.831 227.955 161.673 270 161.673C312.045 161.673 349.364 188.831 360.752 227.716C361.699 230.948 364.755 233.059 368.081 233.059C368.765 233.059 369.461 232.97 370.151 232.782C374.201 231.685 376.559 227.637 375.418 223.741C362.187 178.566 318.837 147.015 270 147.015C221.162 147.015 177.813 178.567 164.583 223.741C163.442 227.637 165.799 231.685 169.85 232.782ZM270 391.369C276.545 391.369 298.508 390.697 306.326 382.059C309.088 379.006 308.755 374.377 305.581 371.719C302.425 369.075 297.645 369.378 294.877 372.387C293.139 373.906 284.121 376.711 270 376.711C255.876 376.711 246.857 373.905 245.121 372.386C242.351 369.378 237.573 369.075 234.416 371.72C231.243 374.378 230.911 379.008 233.675 382.06C241.494 390.698 263.456 391.369 270 391.369ZM132.8 203.758L136.814 205.989C138.014 206.656 139.324 206.974 140.619 206.974C143.25 206.974 145.81 205.66 147.222 203.31C149.327 199.805 148.08 195.323 144.437 193.298L140.424 191.067C136.783 189.043 132.121 190.24 130.016 193.746C127.911 197.25 129.158 201.733 132.8 203.758Z" fill="#61B15A"/>
</g>
<defs>
<filter id="filter0_d_208_239" x="0" y="0" width="540" height="540" filterUnits="userSpaceOnUse" color-interpolation-filters="sRGB">
<feFlood flood-opacity="0" result="BackgroundImageFix"/>
<feColorMatrix in="SourceAlpha" type="matrix" values="0 0 0 0 0 0 0 0 0 0 0 0 0 0 0 0 0 0 127 0" result="hardAlpha"/>
<feOffset dy="4"/>
<feGaussianBlur stdDeviation="60"/>
<feColorMatrix type="matrix" values="0 0 0 0 1 0 0 0 0 1 0 0 0 0 1 0 0 0 1 0"/>
<feBlend mode="normal" in2="BackgroundImageFix" result="effect1_dropShadow_208_239"/>
<feBlend mode="normal" in="SourceGraphic" in2="effect1_dropShadow_208_239" result="shape"/>
</filter>
</defs>
</svg>
